<svg t="1602925747464" class="icon" viewBox="0 0 1024 1024" version="1.1"
     xmlns="http://www.w3.org/2000/svg" p-id="1270" data-spm-anchor-id="a313x.7781069.0.i4"
     width="20" height="20">
    <path d="M619.52 578.56V808.96h194.56V660.48h-133.12v-81.92h215.04V849.92l-40.96 40.96h-276.48l-40.96-40.96V578.56z"
          fill="#00EAFF" p-id="1271" data-spm-anchor-id="a313x.7781069.0.i0" class=""></path>
    <path d="M619.52 512V215.04h194.56v172.032h-133.12v81.92h174.08l40.96-40.96V174.08l-40.96-40.96h-276.48l-40.96 40.96v337.92z"
          fill="#3C8CE7" p-id="1272" data-spm-anchor-id="a313x.7781069.0.i6" class=""></path>
    <path d="M445.44 890.88h-276.48l-40.96-40.96V619.52l40.96-40.96h174.08v81.92h-133.12V808.96h194.56V215.04h-194.56v172.032h133.12v81.92h-174.08l-40.96-40.96V174.08l40.96-40.96h276.48l40.96 40.96v675.84z"
          fill="#3C8CE7" p-id="1273" data-spm-anchor-id="a313x.7781069.0.i3" class=""></path>
</svg>