<svg t="1602925988984" class="icon" viewBox="0 0 1024 1024" version="1.1"
     xmlns="http://www.w3.org/2000/svg" p-id="1945" width="17" height="17">
    <path d="M803.84 883.712h-163.84v-81.92h133.12l118.784-393.216-178.176 95.232-55.296-15.36L512 240.64 365.568 488.448l-55.296 15.36-178.176-95.232 118.784 393.216h133.12v81.92h-163.84l-38.912-28.672L25.6 336.896l58.368-47.104 230.4 122.88 162.816-272.384h69.632l162.816 272.384 230.4-122.88 58.368 47.104-155.648 518.144z"
          fill="#3C8CE7" p-id="1946" data-spm-anchor-id="a313x.7781069.0.i17" class=""></path>
    <path d="M305.152 620.544h61.44v61.44h-61.44zM481.28 620.544h61.44v61.44h-61.44zM657.408 620.544h61.44v61.44h-61.44z"
          fill="#00EAFF" p-id="1947" data-spm-anchor-id="a313x.7781069.0.i14" class=""></path>
</svg>