<svg t="1602951214662" class="icon" viewBox="0 0 1024 1024" version="1.1"
     xmlns="http://www.w3.org/2000/svg" p-id="1513" width="20" height="20">
    <path d="M791.552 1002.496L513.024 875.52l-91.136 45.056-35.84-73.728 107.52-53.248 35.84-1.024L766.976 901.12V242.688H257.024v559.104h-81.92V201.728l40.96-40.96h591.872l40.96 40.96v762.88z"
          fill="#3C8CE7" p-id="1514" data-spm-anchor-id="a313x.7781069.0.i7"
          class="selected"></path>
    <path d="M481.28 21.504h61.44v309.248h-61.44z" fill="#00EAFF" p-id="1515"
          data-spm-anchor-id="a313x.7781069.0.i8" class=""></path>
    <path d="M512 518.144c-63.488 0-114.688-51.2-114.688-114.688 0-63.488 51.2-114.688 114.688-114.688s114.688 51.2 114.688 114.688c0 63.488-51.2 114.688-114.688 114.688z m0-167.936c-29.696 0-53.248 23.552-53.248 53.248 0 29.696 23.552 53.248 53.248 53.248s53.248-23.552 53.248-53.248c0-29.696-23.552-53.248-53.248-53.248z"
          fill="#3C8CE7" p-id="1516" data-spm-anchor-id="a313x.7781069.0.i11"
          class="selected"></path>
</svg>